<svg xmlns="http://www.w3.org/2000/svg" version="1.1" xmlns:xlink="http://www.w3.org/1999/xlink" width="512" height="512" x="0" y="0" viewBox="0 0 512 512" style="enable-background:new 0 0 512 512" xml:space="preserve" class=""><g><path fill="#8c309b" fill-rule="evenodd" d="M256.25.248c141.376 0 256 114.6 256 256s-114.623 256-256 256-256-114.6-256-256 114.623-256 256-256zm107 287.128 28.1-80.865H378.4a86.527 86.527 0 0 1-171.907 0h-9.813l28.1 80.865a11.52 11.52 0 0 0 11.146 7.951H352.1a11.52 11.52 0 0 0 11.146-7.951zM238.823 157.009a66.418 66.418 0 0 0-12.286 29.627H256.5a169.061 169.061 0 0 1 1.882-17.951 85.46 85.46 0 0 1-19.554-11.676zm89.583 29.627h29.954a66.508 66.508 0 0 0-12.277-29.627 85.731 85.731 0 0 1-19.563 11.676 170.1 170.1 0 0 1 1.886 17.951zm17.677 49.439a66.266 66.266 0 0 0 12.277-29.564h-29.954a170.623 170.623 0 0 1-1.886 17.889 85.731 85.731 0 0 1 19.563 11.676zm-25.783 12.36a71.171 71.171 0 0 1-5.187 10.806 64.934 64.934 0 0 0 16.772-9 65.767 65.767 0 0 0-10.072-6.087c-.483 1.428-.98 2.919-1.513 4.286zm-57.215-4.286a65.576 65.576 0 0 0-10.067 6.087 64.8 64.8 0 0 0 16.772 9 70.78 70.78 0 0 1-5.192-10.806c-.528-1.367-1.029-2.858-1.513-4.286zm29.364 10.869c.666 0 4.952-2.421 9.3-13.726.382-.994.75-2.05 1.11-3.1a67.457 67.457 0 0 0-20.819 0c.36 1.055.728 2.111 1.114 3.1 4.353 11.305 8.63 13.726 9.295 13.726zm16.044-48.507H276.4c.258 4.161.675 8.26 1.229 12.235a89.051 89.051 0 0 1 29.63 0c.555-3.975.972-8.074 1.229-12.235zm-16.044-30.869a90.049 90.049 0 0 1-14.815-1.242 154.838 154.838 0 0 0-1.229 12.236h32.088a153.899 153.899 0 0 0-1.229-12.236 90.04 90.04 0 0 1-14.815 1.242zm-9.295-23.85a153.262 153.262 0 0 0-1.114 3.168 67.457 67.457 0 0 0 20.819 0q-.54-1.583-1.11-3.168c-4.348-11.3-8.634-13.665-9.3-13.665s-4.942 2.361-9.295 13.665zM263.084 149c.484-1.49.985-2.921 1.513-4.348a70.749 70.749 0 0 1 5.192-10.807 68.776 68.776 0 0 0-16.772 9.006A66.191 66.191 0 0 0 263.084 149zm57.216-4.35c.533 1.427 1.03 2.858 1.513 4.348a66.385 66.385 0 0 0 10.072-6.149 68.922 68.922 0 0 0-16.772-9.006 71.139 71.139 0 0 1 5.187 10.807zm-63.8 61.861h-29.963a66.177 66.177 0 0 0 12.286 29.564 85.46 85.46 0 0 1 19.554-11.675 169.572 169.572 0 0 1-1.882-17.888zm148.822-19.875H378.4a86.524 86.524 0 0 0-171.907 0h-16.717l-11.1-31.986a31.333 31.333 0 0 0-29.923-21.305h-41.562a9.938 9.938 0 1 0 0 19.875h41.561a11.515 11.515 0 0 1 11.15 7.952L206.007 293.9a31.54 31.54 0 0 0 12.494 16.21 29.972 29.972 0 0 0-4.392 15.59 30.394 30.394 0 0 0 30.38 30.371h4.042a25.522 25.522 0 1 0 29.293 0h62.34a25.461 25.461 0 1 0 29.1 0h13.1a9.937 9.937 0 1 0 0-19.874H244.489a10.492 10.492 0 0 1-1.553-20.87c.2-.062.382-.062.572-.123H352.1a31.252 31.252 0 0 0 29.923-21.3L414.7 199.8a9.9 9.9 0 0 0-9.379-13.167z" opacity="1" data-original="#8c309b" class=""></path></g></svg>